<svg version="1.2" xmlns="http://www.w3.org/2000/svg" viewBox="0 0 168 164" width="200" height="195">
	<title>Inventario-svg</title>
	<style>
		.s0 { fill: #4ecb71 } 
	</style>
	<path id="Layer" fill-rule="evenodd" class="s0" d="m134 128c0 18.4-22.4 33.3-50 33.3-27.6 0-50-14.9-50-33.3 0-7.5 3.8-14.4 10-20q-2.4-3.2-4.3-6.8-1.9-3.6-3.1-7.4-1.3-3.8-2-7.8-0.6-4-0.6-8l1-10.2c-4.5 1.3-9.9 1.3-14.3 0-8.5-2.3-21.4-11.9-19.4-18.6 1.9-6.6 17.8-7.9 26.3-5.4 4.9 1.5 10.1 5 13.2 8.9l4.8-6.8c-5-9.1-3.3-34.6 21.7-42.9l-0.7 1.2c-2.4 3.6-8.3 15.2-2 27.7q4.6-1.9 9.5-2.9 4.9-1 9.9-1 5 0 9.9 1 4.9 1 9.5 2.9c6.3-12.5 0.3-24.1-2-27.7l-0.7-1.2c25 8.3 26.7 33.8 21.7 42.9l4.8 6.8c3.1-3.9 8.3-7.4 13.2-8.9 8.5-2.5 24.4-1.2 26.4 5.5 1.9 6.6-11 16.2-19.5 18.5-4.4 1.3-9.8 1.3-14.3 0l1 10.2c0 11.3-3.7 21.7-10 30 6.3 5.6 10 12.5 10 20zm-50-16.7c-18.4 0-33.3 7.5-33.3 16.7 0 9.2 14.9 16.7 33.3 16.7 18.4 0 33.3-7.5 33.3-16.7 0-9.2-14.9-16.7-33.3-16.7zm0-16.6c9.3 0 18.1 1.7 25.6 4.6 4.8-5.7 7.7-13 7.7-21.3 0-8.8-3.6-17.2-9.8-23.4-6.3-6.2-14.7-9.7-23.5-9.7-8.8 0-17.2 3.5-23.5 9.7-6.2 6.2-9.8 14.6-9.8 23.4 0 8.3 2.9 15.6 7.7 21.3 7.5-2.9 16.3-4.6 25.6-4.6zm16.7-25c2.2-0.1 4.3 0.8 5.9 2.4 1.6 1.5 2.5 3.7 2.5 5.9 0 2.2-0.9 4.4-2.5 5.9-1.6 1.6-3.7 2.5-5.9 2.4-2.2 0-4.3-0.9-5.9-2.4-1.5-1.6-2.4-3.7-2.4-5.9 0-2.2 0.9-4.3 2.4-5.9 1.6-1.5 3.7-2.4 5.9-2.4zm-29.2 58.3c0.8 0 1.6 0.2 2.3 0.7 0.7 0.5 1.2 1.1 1.5 1.9 0.4 0.7 0.4 1.6 0.3 2.4-0.2 0.8-0.6 1.5-1.2 2.1-0.7 0.8-1.8 1.2-2.9 1.2-1.1-0.1-2.1-0.5-2.9-1.3-0.7-0.7-1.2-1.8-1.2-2.9 0-1 0.4-2.1 1.2-2.9q0.2-0.3 0.6-0.5 0.3-0.2 0.7-0.4 0.4-0.1 0.8-0.2 0.4-0.1 0.8-0.1zm25 0c1.1 0 2.2 0.4 2.9 1.2 0.8 0.8 1.3 1.9 1.3 3 0 1.1-0.5 2.1-1.3 2.9-0.7 0.8-1.8 1.2-2.9 1.2-1.1 0-2.2-0.4-2.9-1.2-0.8-0.8-1.3-1.8-1.3-2.9 0-1.1 0.5-2.2 1.3-3 0.7-0.8 1.8-1.2 2.9-1.2zm-29.2-58.3c2.2 0 4.4 0.8 5.9 2.4 1.6 1.6 2.5 3.7 2.5 5.9 0 2.2-0.9 4.3-2.5 5.9-1.5 1.6-3.7 2.4-5.9 2.4-2.2 0-4.3-0.8-5.9-2.4-1.5-1.6-2.4-3.7-2.4-5.9 0-2.2 0.9-4.3 2.4-5.9 1.6-1.6 3.7-2.4 5.9-2.4z"/>
</svg>